G04 Layer: TopSilkscreenLayer*
G04 EasyEDA v6.5.34, 2023-08-08 23:12:56*
G04 417032f779d546a0bdf4f7a8fd0aa538,e87ba6ffdfb0417d91de07616a749205,10*
G04 Gerber Generator version 0.2*
G04 Scale: 100 percent, Rotated: No, Reflected: No *
G04 Dimensions in millimeters *
G04 leading zeros omitted , absolute positions ,4 integer and 5 decimal *
%FSLAX45Y45*%
%MOMM*%

%ADD10C,0.2032*%
%ADD11C,0.2540*%

%LPD*%
D10*
X-969063Y892114D02*
G01*
X-969063Y663006D01*
X-969063Y783148D02*
G01*
X-990907Y804992D01*
X-1012751Y815914D01*
X-1045517Y815914D01*
X-1067361Y804992D01*
X-1089205Y783148D01*
X-1099873Y750382D01*
X-1099873Y728538D01*
X-1089205Y695772D01*
X-1067361Y673928D01*
X-1045517Y663006D01*
X-1012751Y663006D01*
X-990907Y673928D01*
X-969063Y695772D01*
X-897181Y750382D02*
G01*
X-766117Y750382D01*
X-766117Y772226D01*
X-777039Y794070D01*
X-787961Y804992D01*
X-809805Y815914D01*
X-842571Y815914D01*
X-864415Y804992D01*
X-886259Y783148D01*
X-897181Y750382D01*
X-897181Y728538D01*
X-886259Y695772D01*
X-864415Y673928D01*
X-842571Y663006D01*
X-809805Y663006D01*
X-787961Y673928D01*
X-766117Y695772D01*
X-694235Y750382D02*
G01*
X-563171Y750382D01*
X-563171Y772226D01*
X-574093Y794070D01*
X-585015Y804992D01*
X-606859Y815914D01*
X-639625Y815914D01*
X-661469Y804992D01*
X-683313Y783148D01*
X-694235Y750382D01*
X-694235Y728538D01*
X-683313Y695772D01*
X-661469Y673928D01*
X-639625Y663006D01*
X-606859Y663006D01*
X-585015Y673928D01*
X-563171Y695772D01*
X-491289Y892114D02*
G01*
X-491289Y663006D01*
X-491289Y783148D02*
G01*
X-469445Y804992D01*
X-447601Y815914D01*
X-414835Y815914D01*
X-392991Y804992D01*
X-371147Y783148D01*
X-360479Y750382D01*
X-360479Y728538D01*
X-371147Y695772D01*
X-392991Y673928D01*
X-414835Y663006D01*
X-447601Y663006D01*
X-469445Y673928D01*
X-491289Y695772D01*
X-288343Y815914D02*
G01*
X-288343Y706694D01*
X-277421Y673928D01*
X-255577Y663006D01*
X-222811Y663006D01*
X-200967Y673928D01*
X-168455Y706694D01*
X-168455Y815914D02*
G01*
X-168455Y663006D01*
X34490Y815914D02*
G01*
X34490Y641162D01*
X23568Y608650D01*
X12646Y597728D01*
X-9197Y586806D01*
X-41709Y586806D01*
X-63553Y597728D01*
X34490Y783148D02*
G01*
X12646Y804992D01*
X-9197Y815914D01*
X-41709Y815914D01*
X-63553Y804992D01*
X-85397Y783148D01*
X-96319Y750382D01*
X-96319Y728538D01*
X-85397Y695772D01*
X-63553Y673928D01*
X-41709Y663006D01*
X-9197Y663006D01*
X12646Y673928D01*
X34490Y695772D01*
X237436Y815914D02*
G01*
X237436Y641162D01*
X226514Y608650D01*
X215592Y597728D01*
X193748Y586806D01*
X160982Y586806D01*
X139392Y597728D01*
X237436Y783148D02*
G01*
X215592Y804992D01*
X193748Y815914D01*
X160982Y815914D01*
X139392Y804992D01*
X117548Y783148D01*
X106626Y750382D01*
X106626Y728538D01*
X117548Y695772D01*
X139392Y673928D01*
X160982Y663006D01*
X193748Y663006D01*
X215592Y673928D01*
X237436Y695772D01*
X309572Y750382D02*
G01*
X440382Y750382D01*
X440382Y772226D01*
X429460Y794070D01*
X418538Y804992D01*
X396694Y815914D01*
X363928Y815914D01*
X342084Y804992D01*
X320240Y783148D01*
X309572Y750382D01*
X309572Y728538D01*
X320240Y695772D01*
X342084Y673928D01*
X363928Y663006D01*
X396694Y663006D01*
X418538Y673928D01*
X440382Y695772D01*
X512264Y815914D02*
G01*
X512264Y663006D01*
X512264Y750382D02*
G01*
X523186Y783148D01*
X545030Y804992D01*
X566874Y815914D01*
X599640Y815914D01*
X682444Y717616D02*
G01*
X671522Y706694D01*
X682444Y695772D01*
X693366Y706694D01*
X682444Y717616D01*
X896312Y892114D02*
G01*
X896312Y663006D01*
X896312Y783148D02*
G01*
X874468Y804992D01*
X852624Y815914D01*
X820112Y815914D01*
X798268Y804992D01*
X776424Y783148D01*
X765502Y750382D01*
X765502Y728538D01*
X776424Y695772D01*
X798268Y673928D01*
X820112Y663006D01*
X852624Y663006D01*
X874468Y673928D01*
X896312Y695772D01*
X968448Y750382D02*
G01*
X1099258Y750382D01*
X1099258Y772226D01*
X1088336Y794070D01*
X1077414Y804992D01*
X1055570Y815914D01*
X1022804Y815914D01*
X1001214Y804992D01*
X979370Y783148D01*
X968448Y750382D01*
X968448Y728538D01*
X979370Y695772D01*
X1001214Y673928D01*
X1022804Y663006D01*
X1055570Y663006D01*
X1077414Y673928D01*
X1099258Y695772D01*
X-1342313Y282994D02*
G01*
X-1342313Y290614D01*
X-1334439Y306108D01*
X-1326819Y313728D01*
X-1311325Y321602D01*
X-1280337Y321602D01*
X-1265097Y313728D01*
X-1257223Y306108D01*
X-1249603Y290614D01*
X-1249603Y275120D01*
X-1257223Y259626D01*
X-1272717Y236512D01*
X-1349933Y159296D01*
X-1241729Y159296D01*
X-1190929Y267500D02*
G01*
X-1105839Y159296D01*
X-1105839Y267500D02*
G01*
X-1190929Y159296D01*
X-962075Y298488D02*
G01*
X-969695Y313728D01*
X-993063Y321602D01*
X-1008557Y321602D01*
X-1031671Y313728D01*
X-1047165Y290614D01*
X-1054785Y252006D01*
X-1054785Y213398D01*
X-1047165Y182410D01*
X-1031671Y166916D01*
X-1008557Y159296D01*
X-1000683Y159296D01*
X-977569Y166916D01*
X-962075Y182410D01*
X-954455Y205524D01*
X-954455Y213398D01*
X-962075Y236512D01*
X-977569Y252006D01*
X-1000683Y259626D01*
X-1008557Y259626D01*
X-1031671Y252006D01*
X-1047165Y236512D01*
X-1054785Y213398D01*
X-784275Y321602D02*
G01*
X-784275Y159296D01*
X-784275Y321602D02*
G01*
X-714933Y321602D01*
X-691565Y313728D01*
X-683945Y306108D01*
X-676071Y290614D01*
X-676071Y267500D01*
X-683945Y252006D01*
X-691565Y244386D01*
X-714933Y236512D01*
X-784275Y236512D01*
X-625271Y321602D02*
G01*
X-617397Y313728D01*
X-609777Y321602D01*
X-617397Y329222D01*
X-625271Y321602D01*
X-617397Y267500D02*
G01*
X-617397Y159296D01*
X-558723Y267500D02*
G01*
X-558723Y159296D01*
X-558723Y236512D02*
G01*
X-535609Y259626D01*
X-520115Y267500D01*
X-497001Y267500D01*
X-481507Y259626D01*
X-473633Y236512D01*
X-473633Y159296D01*
X-288213Y321602D02*
G01*
X-203377Y321602D01*
X-249605Y259626D01*
X-226491Y259626D01*
X-210997Y252006D01*
X-203377Y244386D01*
X-195503Y221018D01*
X-195503Y205524D01*
X-203377Y182410D01*
X-218617Y166916D01*
X-241985Y159296D01*
X-265099Y159296D01*
X-288213Y166916D01*
X-296087Y174790D01*
X-303707Y190284D01*
X-136829Y197904D02*
G01*
X-144449Y190284D01*
X-136829Y182410D01*
X-129209Y190284D01*
X-136829Y197904D01*
X22428Y267500D02*
G01*
X14554Y244386D01*
X-939Y228892D01*
X-24053Y221018D01*
X-31673Y221018D01*
X-54787Y228892D01*
X-70281Y244386D01*
X-78155Y267500D01*
X-78155Y275120D01*
X-70281Y298488D01*
X-54787Y313728D01*
X-31673Y321602D01*
X-24053Y321602D01*
X-939Y313728D01*
X14554Y298488D01*
X22428Y267500D01*
X22428Y228892D01*
X14554Y190284D01*
X-939Y166916D01*
X-24053Y159296D01*
X-39547Y159296D01*
X-62661Y166916D01*
X-70281Y182410D01*
X166192Y298488D02*
G01*
X158318Y313728D01*
X135204Y321602D01*
X119710Y321602D01*
X96596Y313728D01*
X81102Y290614D01*
X73482Y252006D01*
X73482Y213398D01*
X81102Y182410D01*
X96596Y166916D01*
X119710Y159296D01*
X127330Y159296D01*
X150698Y166916D01*
X166192Y182410D01*
X173812Y205524D01*
X173812Y213398D01*
X166192Y236512D01*
X150698Y252006D01*
X127330Y259626D01*
X119710Y259626D01*
X96596Y252006D01*
X81102Y236512D01*
X73482Y213398D01*
X224866Y267500D02*
G01*
X224866Y159296D01*
X224866Y236512D02*
G01*
X247980Y259626D01*
X263474Y267500D01*
X286588Y267500D01*
X302082Y259626D01*
X309702Y236512D01*
X309702Y159296D01*
X309702Y236512D02*
G01*
X333070Y259626D01*
X348564Y267500D01*
X371678Y267500D01*
X387172Y259626D01*
X394792Y236512D01*
X394792Y159296D01*
X445846Y267500D02*
G01*
X445846Y159296D01*
X445846Y236512D02*
G01*
X468960Y259626D01*
X484454Y267500D01*
X507568Y267500D01*
X523062Y259626D01*
X530936Y236512D01*
X530936Y159296D01*
X530936Y236512D02*
G01*
X554050Y259626D01*
X569544Y267500D01*
X592658Y267500D01*
X608152Y259626D01*
X615772Y236512D01*
X615772Y159296D01*
X785698Y321602D02*
G01*
X785698Y159296D01*
X785698Y321602D02*
G01*
X855294Y321602D01*
X878662Y313728D01*
X886282Y306108D01*
X893902Y290614D01*
X893902Y267500D01*
X886282Y252006D01*
X878662Y244386D01*
X855294Y236512D01*
X785698Y236512D01*
X944956Y321602D02*
G01*
X952830Y313728D01*
X960450Y321602D01*
X952830Y329222D01*
X944956Y321602D01*
X952830Y267500D02*
G01*
X952830Y159296D01*
X1034618Y321602D02*
G01*
X1034618Y190284D01*
X1042238Y166916D01*
X1057732Y159296D01*
X1073226Y159296D01*
X1011504Y267500D02*
G01*
X1065606Y267500D01*
X1216990Y244386D02*
G01*
X1201496Y259626D01*
X1186002Y267500D01*
X1162888Y267500D01*
X1147394Y259626D01*
X1131900Y244386D01*
X1124280Y221018D01*
X1124280Y205524D01*
X1131900Y182410D01*
X1147394Y166916D01*
X1162888Y159296D01*
X1186002Y159296D01*
X1201496Y166916D01*
X1216990Y182410D01*
X1268044Y321602D02*
G01*
X1268044Y159296D01*
X1268044Y236512D02*
G01*
X1291158Y259626D01*
X1306652Y267500D01*
X1329766Y267500D01*
X1345260Y259626D01*
X1352880Y236512D01*
X1352880Y159296D01*
D11*
X-762000Y1236499D02*
G01*
X-762000Y1363499D01*
X-762000Y1236499D02*
G01*
X-698500Y1172999D01*
X-571500Y1172999D01*
X-508000Y1236499D01*
X-762000Y1363499D02*
G01*
X-698500Y1426999D01*
X-571500Y1426999D01*
X-508000Y1363499D01*
X-508000Y1236499D02*
G01*
X-444500Y1172999D01*
X-317500Y1172999D01*
X-254000Y1236499D01*
X-508000Y1363499D02*
G01*
X-444500Y1426999D01*
X-317500Y1426999D01*
X-254000Y1363499D01*
X-254000Y1236499D02*
G01*
X-190500Y1172999D01*
X-63500Y1172999D01*
X0Y1236499D01*
X-254000Y1363499D02*
G01*
X-190500Y1426999D01*
X-63500Y1426999D01*
X0Y1363499D01*
X0Y1236499D02*
G01*
X63500Y1172999D01*
X190500Y1172999D01*
X254000Y1236499D01*
X0Y1363499D02*
G01*
X63500Y1426999D01*
X190500Y1426999D01*
X254000Y1363499D01*
X254000Y1236499D02*
G01*
X317500Y1172999D01*
X444500Y1172999D01*
X508000Y1236499D01*
X254000Y1363499D02*
G01*
X317500Y1426999D01*
X444500Y1426999D01*
X508000Y1363499D01*
X508000Y1236499D02*
G01*
X571500Y1172999D01*
X698500Y1172999D01*
X762000Y1236499D01*
X508000Y1363499D02*
G01*
X571500Y1426999D01*
X698500Y1426999D01*
X762000Y1363499D01*
X762000Y1236499D02*
G01*
X762000Y1363499D01*
M02*
