G04 Layer: BottomSilkscreenLayer*
G04 EasyEDA v6.5.34, 2023-08-08 23:12:56*
G04 417032f779d546a0bdf4f7a8fd0aa538,e87ba6ffdfb0417d91de07616a749205,10*
G04 Gerber Generator version 0.2*
G04 Scale: 100 percent, Rotated: No, Reflected: No *
G04 Dimensions in millimeters *
G04 leading zeros omitted , absolute positions ,4 integer and 5 decimal *
%FSLAX45Y45*%
%MOMM*%

%ADD10C,0.2540*%

%LPD*%
D10*
X762000Y1736498D02*
G01*
X762000Y1863498D01*
X762000Y1736498D02*
G01*
X698500Y1672998D01*
X571500Y1672998D01*
X508000Y1736498D01*
X762000Y1863498D02*
G01*
X698500Y1926998D01*
X571500Y1926998D01*
X508000Y1863498D01*
X508000Y1736498D02*
G01*
X444500Y1672998D01*
X317500Y1672998D01*
X254000Y1736498D01*
X508000Y1863498D02*
G01*
X444500Y1926998D01*
X317500Y1926998D01*
X254000Y1863498D01*
X254000Y1736498D02*
G01*
X190500Y1672998D01*
X63500Y1672998D01*
X0Y1736498D01*
X254000Y1863498D02*
G01*
X190500Y1926998D01*
X63500Y1926998D01*
X0Y1863498D01*
X0Y1736498D02*
G01*
X-63500Y1672998D01*
X-190500Y1672998D01*
X-254000Y1736498D01*
X0Y1863498D02*
G01*
X-63500Y1926998D01*
X-190500Y1926998D01*
X-254000Y1863498D01*
X-254000Y1736498D02*
G01*
X-317500Y1672998D01*
X-444500Y1672998D01*
X-508000Y1736498D01*
X-254000Y1863498D02*
G01*
X-317500Y1926998D01*
X-444500Y1926998D01*
X-508000Y1863498D01*
X-508000Y1736498D02*
G01*
X-571500Y1672998D01*
X-698500Y1672998D01*
X-762000Y1736498D01*
X-508000Y1863498D02*
G01*
X-571500Y1926998D01*
X-698500Y1926998D01*
X-762000Y1863498D01*
X-762000Y1736498D02*
G01*
X-762000Y1863498D01*
M02*
